<svg xmlns="http://www.w3.org/2000/svg" viewBox="0 0 841.89 595.28">
  <defs/>
  <g fill="#387d3c">
    <path d="M469.233 284.55c0 18.889 16.427 34.204 36.688 34.204s36.687-15.314 36.687-34.204c0-18.894-16.426-34.208-36.687-34.208s-36.688 15.314-36.688 34.208zm36.688-18.953c11.224 0 20.327 8.485 20.327 18.954 0 10.466-9.104 18.951-20.327 18.951s-20.327-8.485-20.327-18.951c0-10.469 9.103-18.954 20.327-18.954z"/>
    <path d="M592.703 205.786a204.606 204.606 0 00-4.215-4.16 197.408 197.408 0 00-9.867-8.868 21.44 21.44 0 01-1.465-2.34c-1.48-2.789-2.381-6.001-2.141-9.649.904-13.682 18.094-30.488 10.537-35.572-3.66-2.458-16.477 1.022-32.232 7.262-7.633 3.024-15.908 6.571-24.205 10.305-40.054-17.547-74.405-19.395-105.676-20.169l.004-.121-2.481.06h-.036l-2.48-.06.003.121c-31.27.774-65.622 2.622-105.675 20.169-8.296-3.734-16.572-7.281-24.206-10.305-15.755-6.239-28.571-9.719-32.231-7.262-7.558 5.083 9.632 21.89 10.536 35.572.241 3.648-.66 6.861-2.141 9.649a21.432 21.432 0 01-1.464 2.34 197.853 197.853 0 00-9.867 8.868 204.606 204.606 0 00-4.215 4.16c-27.729 28.184-44.815 59.686-44.777 81.191.078 44.732 34.848 78.032 83.187 99.911 32.914 14.898 43.229 14.608 64.05 25.391s31.604 26.398 40.155 33.463c7.448 6.152 24.38 6.942 28.629 7.047v.018s.206-.006.497-.006h.036c.291 0 .497.006.497.006v-.018c4.25-.104 21.182-.895 28.629-7.047 8.553-7.064 19.334-22.681 40.156-33.463 20.82-10.782 31.135-10.492 64.049-25.391 48.338-21.879 83.109-55.179 83.188-99.911.036-21.505-17.05-53.007-44.779-81.191zm-174.192-59.465l-.003-.118c.799.019 1.615.04 2.419.058h.036l2.419-.058-.003.118c29.914.741 62.714 2.479 100.813 18.672-10.074 4.626-19.674 10.87-28.304 15.334-43.13 22.309-56.806 54.255-72.444 58.319-.809.21-1.676.154-2.481.135h-.036c-.805.019-1.673.076-2.48-.135-15.639-4.064-29.315-36.01-72.445-58.319-8.63-4.465-18.23-10.708-28.304-15.334 38.099-16.192 70.899-17.931 100.813-18.672zm128.936 239.245c-32.242 14.268-38.488 12.531-58.811 23.052-20.318 10.527-31.992 26.195-40.341 33.091-7.268 6.008-22.622 6.688-26.77 6.786 0 0-.279.046-.563.046h-.036c-.285 0-.563-.046-.563-.046-4.148-.099-19.502-.778-26.77-6.786-8.349-6.896-20.022-22.563-40.341-33.091-20.322-10.521-26.567-8.784-58.81-23.052-41.619-18.419-84.831-49.822-85.894-97.387-.546-24.454 19-55.27 48.027-83.429 8.188-.864 11.988 1.656 15.688 4.648 9.908 8.008 12.734 19.688 20.76 15.863 13.867-6.61-11.015-25.057 9.417-32.966 53.97-20.891 123.44 66.926 104.106 114.518-9.016 22.195-26.282 33.64-42.142 39.539-7.692 2.861-15.035 4.41-20.961 5.252-1.081.059-2.152.148-3.248.148-35.729 0-65.13-29.445-65.13-65.177 0-35.499 28.594-63.46 64.003-63.823.232-.003.459-.018.691-.018.772 0 1.534.032 2.294.055.163-.267.285-.563.285-.9 0-.555-.273-1.028-.671-1.354-.444-.006-.886-.032-1.333-.032-.279 0-.558.017-.837.02-36.719.433-66.911 29.233-66.911 66.051 0 34.175 25.53 62.371 58.557 66.603 6.164 3.082 35.383 18.045 54.581 33.945 18.579 15.39 35.2 36.827 35.2 36.827s.018-.021.018-.023c0 .003.018.023.018.023s16.622-21.438 35.2-36.827c19.197-15.9 48.416-30.863 54.58-33.945 33.027-4.232 58.557-32.428 58.557-66.603 0-36.818-30.191-65.618-66.91-66.051-.279-.003-.559-.02-.837-.02-.447 0-.889.026-1.333.032-.398.325-.671.799-.671 1.354 0 .337.122.633.284.9.762-.023 1.522-.055 2.295-.055.232 0 .459.015.691.018 35.408.363 64.004 28.324 64.004 63.823 0 35.732-29.402 65.177-65.131 65.177-1.096 0-2.167-.09-3.248-.148-5.926-.842-13.269-2.391-20.961-5.252-15.859-5.899-33.125-17.344-42.142-39.539-19.334-47.592 50.136-135.408 104.106-114.518 20.432 7.91-4.449 26.356 9.418 32.966 8.025 3.826 10.852-7.854 20.76-15.863 3.701-2.992 7.5-5.512 15.689-4.648 29.027 28.159 48.572 58.976 48.027 83.429-1.061 47.565-44.272 78.968-85.891 97.387z"/>
    <path d="M299.282 284.55c0 18.889 16.427 34.204 36.687 34.204 20.261 0 36.688-15.314 36.688-34.204 0-18.894-16.427-34.208-36.688-34.208-20.261 0-36.687 15.314-36.687 34.208zm57.014 0c0 10.466-9.104 18.951-20.328 18.951s-20.327-8.485-20.327-18.951c0-10.469 9.104-18.954 20.327-18.954 11.225.001 20.328 8.486 20.328 18.954z"/>
  </g>
</svg>